<svg width="790" height="566" viewBox="0 0 790 566" fill="none" xmlns="http://www.w3.org/2000/svg">
<g id="Dashboard 12">
<g id="Frame 13">
<circle id="Ellipse 16" opacity="0.3" cx="241.605" cy="396.805" r="126.592" transform="rotate(-173.689 241.605 396.805)" fill="url(#paint0_linear_403_27068)" fill-opacity="0.5"/>
<path id="Ellipse 5" d="M98.7915 306.705C97.0093 305.385 95.5114 303.889 94.3193 302.214L94.6838 301.954C94.0818 301.108 93.5601 300.216 93.1213 299.277C92.6826 298.338 92.3329 297.366 92.0703 296.361L91.6374 296.475C91.1174 294.486 90.9306 292.377 91.0614 290.163L91.5081 290.189C91.6242 288.223 91.9961 286.166 92.6154 284.028L92.1856 283.903C92.7435 281.977 93.4982 279.992 94.4414 277.956L94.8474 278.144C95.6888 276.327 96.6828 274.466 97.8238 272.568L97.4403 272.337C98.4915 270.589 99.6656 268.81 100.958 267.005L101.322 267.266C102.505 265.613 103.789 263.939 105.169 262.245L104.823 261.962C106.124 260.366 107.51 258.753 108.979 257.128L109.311 257.427C110.696 255.894 112.155 254.349 113.685 252.793L113.366 252.48C114.816 251.005 116.33 249.522 117.906 248.032L118.213 248.357C119.719 246.933 121.282 245.503 122.899 244.069L122.602 243.734C124.161 242.351 125.77 240.965 127.429 239.576L127.716 239.919C129.314 238.58 130.958 237.239 132.646 235.898L132.367 235.547C134.005 234.245 135.684 232.943 137.403 231.641L137.674 231.998C139.341 230.735 141.046 229.473 142.788 228.212L142.526 227.85C144.225 226.62 145.959 225.392 147.726 224.167L147.981 224.535C149.704 223.34 151.459 222.148 153.245 220.96L152.997 220.587C154.747 219.423 156.527 218.262 158.334 217.106L158.576 217.483C160.346 216.351 162.143 215.223 163.967 214.101L163.733 213.72C165.526 212.616 167.345 211.518 169.188 210.425L169.416 210.81C171.227 209.737 173.062 208.669 174.92 207.608L174.698 207.219C176.53 206.173 178.384 205.133 180.259 204.1L180.475 204.492C182.322 203.475 184.191 202.464 186.079 201.461L185.869 201.066C187.732 200.077 189.615 199.095 191.516 198.121L191.72 198.519C193.596 197.559 195.491 196.606 197.402 195.661L197.204 195.26C199.098 194.325 201.009 193.399 202.936 192.481L203.128 192.885C204.087 192.429 205.05 191.974 206.017 191.522C206.984 191.071 207.95 190.623 208.916 190.181L208.729 189.774C210.669 188.884 212.606 188.013 214.538 187.16L214.719 187.57C216.67 186.709 218.616 185.867 220.556 185.044L220.382 184.632C222.349 183.798 224.31 182.984 226.264 182.19L226.432 182.604C228.413 181.799 230.387 181.014 232.352 180.25L232.19 179.833C234.186 179.057 236.173 178.302 238.15 177.568L238.306 177.987C240.312 177.243 242.308 176.52 244.293 175.82L244.144 175.398C246.165 174.685 248.175 173.994 250.172 173.327L250.314 173.751C252.345 173.072 254.363 172.417 256.367 171.785L256.232 171.358C258.279 170.713 260.311 170.093 262.327 169.498L262.453 169.927C264.511 169.319 266.551 168.737 268.573 168.182L268.454 167.75C270.528 167.181 272.582 166.639 274.615 166.124L274.725 166.558C276.81 166.03 278.872 165.532 280.91 165.063L280.81 164.627C282.911 164.143 284.988 163.691 287.037 163.27L287.127 163.708C289.239 163.274 291.322 162.873 293.374 162.506L293.296 162.066C295.425 161.685 297.521 161.34 299.582 161.031L299.649 161.473C301.786 161.153 303.886 160.872 305.944 160.63L305.892 160.186C308.045 159.933 310.155 159.723 312.216 159.556L312.252 160.002C314.427 159.826 316.548 159.699 318.613 159.62L318.596 159.173C320.785 159.09 322.912 159.061 324.971 159.087L324.965 159.534C327.15 159.562 329.258 159.651 331.285 159.803L331.318 159.357C333.532 159.523 335.65 159.764 337.666 160.08L337.597 160.522C339.785 160.864 341.85 161.295 343.783 161.816L343.899 161.383C346.067 161.967 348.074 162.661 349.909 163.469L349.729 163.878C351.766 164.775 353.582 165.809 355.165 166.982L355.432 166.622C357.214 167.942 358.712 169.438 359.904 171.113L359.539 171.373C360.141 172.218 360.663 173.111 361.102 174.049C361.541 174.988 361.89 175.961 362.153 176.965L362.586 176.852C363.106 178.841 363.293 180.95 363.162 183.164L362.715 183.138C362.599 185.104 362.227 187.161 361.608 189.299L362.038 189.423C361.48 191.349 360.725 193.334 359.782 195.371L359.376 195.183C358.534 197 357.54 198.86 356.399 200.759L356.783 200.989C355.732 202.738 354.558 204.517 353.265 206.322L352.901 206.061C351.718 207.713 350.434 209.388 349.054 211.082L349.401 211.364C348.099 212.961 346.713 214.573 345.244 216.199L344.912 215.899C343.527 217.433 342.069 218.978 340.539 220.533L340.858 220.847C339.407 222.322 337.893 223.805 336.318 225.295L336.01 224.969C334.504 226.393 332.942 227.823 331.324 229.258L331.621 229.593C330.062 230.975 328.453 232.362 326.794 233.751L326.507 233.408C324.909 234.747 323.265 236.088 321.577 237.429L321.856 237.779C320.218 239.081 318.539 240.384 316.82 241.686L316.55 241.329C314.882 242.592 313.177 243.854 311.435 245.115L311.697 245.477C309.998 246.707 308.264 247.935 306.497 249.16L306.242 248.792C304.519 249.987 302.764 251.179 300.978 252.367L301.226 252.739C299.476 253.904 297.697 255.064 295.889 256.221L295.648 255.844C293.878 256.976 292.08 258.103 290.256 259.226L290.491 259.607C288.697 260.71 286.878 261.809 285.035 262.902L284.807 262.517C282.996 263.59 281.161 264.658 279.303 265.719L279.525 266.108C277.693 267.154 275.839 268.194 273.964 269.227L273.748 268.835C271.901 269.852 270.033 270.863 268.144 271.865L268.354 272.261C266.491 273.25 264.608 274.232 262.707 275.206L262.503 274.807C260.627 275.768 258.733 276.721 256.821 277.665L257.019 278.066C255.125 279.002 253.215 279.928 251.287 280.846L251.095 280.442C250.136 280.898 249.173 281.352 248.206 281.804C247.239 282.256 246.273 282.704 245.307 283.146L245.494 283.553C243.554 284.443 241.617 285.314 239.685 286.167L239.504 285.757C237.554 286.618 235.607 287.46 233.667 288.283L233.841 288.695C231.875 289.528 229.914 290.343 227.959 291.137L227.791 290.723C225.81 291.528 223.837 292.313 221.871 293.077L222.033 293.494C220.038 294.27 218.051 295.025 216.073 295.759L215.917 295.339C213.911 296.084 211.915 296.806 209.93 297.507L210.079 297.929C208.058 298.642 206.049 299.332 204.051 300L203.91 299.576C201.878 300.255 199.86 300.91 197.856 301.542L197.991 301.968C195.944 302.614 193.912 303.234 191.897 303.829L191.77 303.4C189.713 304.008 187.672 304.589 185.65 305.145L185.769 305.576C183.695 306.146 181.641 306.688 179.608 307.203L179.498 306.769C177.414 307.296 175.351 307.795 173.313 308.264L173.413 308.7C171.312 309.183 169.235 309.636 167.186 310.057L167.096 309.619C164.984 310.053 162.901 310.453 160.849 310.821L160.928 311.261C158.798 311.642 156.702 311.987 154.641 312.296L154.575 311.853C152.437 312.174 150.337 312.455 148.279 312.697L148.331 313.141C146.178 313.394 144.069 313.604 142.007 313.771L141.971 313.325C139.796 313.5 137.675 313.628 135.61 313.707L135.627 314.154C133.438 314.237 131.312 314.266 129.252 314.24L129.258 313.793C127.073 313.765 124.965 313.676 122.938 313.523L122.905 313.97C120.691 313.803 118.573 313.563 116.557 313.247L116.627 312.805C114.438 312.462 112.374 312.031 110.44 311.511L110.324 311.943C108.156 311.36 106.15 310.666 104.314 309.858L104.494 309.448C102.457 308.552 100.641 307.518 99.0578 306.345L98.7915 306.705Z" stroke="black" stroke-opacity="0.46" stroke-width="0.89492" stroke-dasharray="6.26 6.26"/>
<path id="Ellipse 6" d="M83.262 239.546C81.5615 238.175 80.1186 236.64 78.9537 234.938L79.3229 234.686C78.7393 233.833 78.2272 232.939 77.7892 232.001C77.3511 231.064 76.9933 230.097 76.7139 229.102L76.2831 229.223C75.7253 227.238 75.4731 225.146 75.5123 222.962L75.9597 222.97C75.9952 220.991 76.2746 218.93 76.7893 216.797L76.3544 216.692C76.8252 214.74 77.4894 212.734 78.3387 210.682L78.7522 210.853C79.5153 209.009 80.4302 207.125 81.4915 205.206L81.1 204.99C82.0828 203.213 83.1893 201.41 84.4147 199.584L84.7862 199.834C85.9171 198.149 87.1503 196.445 88.4824 194.724L88.1285 194.45C89.3831 192.83 90.7244 191.196 92.1492 189.552L92.4873 189.845C93.8284 188.298 95.2442 186.741 96.732 185.177L96.4079 184.869C97.833 183.371 99.3237 181.868 100.878 180.361L101.189 180.682C102.671 179.245 104.21 177.805 105.806 176.363L105.506 176.031C107.043 174.643 108.631 173.254 110.269 171.865L110.558 172.206C112.139 170.866 113.767 169.526 115.439 168.189L115.16 167.84C116.786 166.54 118.454 165.242 120.162 163.948L120.433 164.305C122.092 163.049 123.789 161.796 125.524 160.548L125.263 160.185C126.958 158.966 128.688 157.752 130.452 156.544L130.705 156.913C132.426 155.734 134.18 154.561 135.966 153.395L135.721 153.02C137.472 151.877 139.253 150.74 141.063 149.61L141.3 149.99C143.073 148.884 144.874 147.785 146.702 146.694L146.473 146.31C148.271 145.237 150.096 144.173 151.946 143.117L152.168 143.506C153.985 142.469 155.827 141.44 157.693 140.422L157.478 140.029C159.319 139.024 161.182 138.028 163.067 137.044L163.275 137.44C165.132 136.47 167.011 135.509 168.909 134.56L168.709 134.16C170.588 133.221 172.485 132.293 174.402 131.377L174.595 131.78C175.547 131.325 176.504 130.873 177.466 130.424C178.427 129.974 179.388 129.531 180.348 129.092L180.162 128.685C182.095 127.803 184.024 126.942 185.949 126.104L186.128 126.514C188.074 125.666 190.016 124.841 191.952 124.039L191.781 123.626C193.746 122.812 195.705 122.021 197.656 121.254L197.82 121.67C199.798 120.893 201.769 120.139 203.731 119.41L203.575 118.991C205.571 118.249 207.558 117.532 209.535 116.841L209.683 117.263C211.692 116.56 213.691 115.884 215.677 115.233L215.537 114.808C217.565 114.144 219.58 113.507 221.58 112.898L221.711 113.326C223.751 112.705 225.776 112.112 227.784 111.548L227.663 111.117C229.722 110.539 231.763 109.99 233.785 109.472L233.896 109.906C235.967 109.375 238.017 108.877 240.045 108.41L239.944 107.974C242.033 107.493 244.099 107.046 246.139 106.633L246.227 107.072C248.326 106.646 250.398 106.257 252.44 105.904L252.364 105.464C254.48 105.098 256.565 104.771 258.616 104.483L258.678 104.926C260.807 104.627 262.9 104.37 264.953 104.155L264.906 103.71C267.059 103.485 269.169 103.306 271.232 103.173L271.26 103.62C273.414 103.482 275.517 103.394 277.564 103.358L277.556 102.911C279.731 102.873 281.845 102.892 283.893 102.969L283.876 103.416C286.051 103.498 288.149 103.646 290.167 103.859L290.214 103.414C292.401 103.645 294.494 103.953 296.487 104.339L296.402 104.778C298.554 105.195 300.587 105.702 302.491 106.299L302.625 105.873C304.744 106.538 306.709 107.315 308.508 108.206L308.31 108.607C310.276 109.581 312.037 110.689 313.578 111.931L313.858 111.583C315.559 112.954 317.002 114.489 318.167 116.191L317.798 116.444C318.381 117.296 318.893 118.191 319.331 119.128C319.769 120.065 320.127 121.032 320.407 122.027L320.837 121.906C321.395 123.891 321.647 125.983 321.608 128.167L321.161 128.159C321.125 130.138 320.846 132.199 320.331 134.332L320.766 134.437C320.295 136.389 319.631 138.395 318.782 140.447L318.368 140.276C317.605 142.12 316.69 144.005 315.629 145.923L316.02 146.14C315.038 147.916 313.931 149.719 312.706 151.545L312.334 151.295C311.203 152.98 309.97 154.685 308.638 156.405L308.992 156.679C307.737 158.299 306.396 159.933 304.971 161.577L304.633 161.284C303.292 162.832 301.876 164.388 300.388 165.952L300.713 166.26C299.287 167.758 297.797 169.262 296.243 170.769L295.931 170.447C294.45 171.884 292.91 173.324 291.314 174.766L291.614 175.098C290.078 176.486 288.489 177.876 286.851 179.264L286.562 178.923C284.981 180.263 283.354 181.603 281.681 182.94L281.96 183.29C280.335 184.589 278.667 185.887 276.958 187.181L276.688 186.824C275.029 188.08 273.331 189.333 271.596 190.581L271.857 190.944C270.163 192.163 268.433 193.377 266.668 194.585L266.416 194.216C264.694 195.395 262.94 196.568 261.155 197.734L261.4 198.109C259.649 199.253 257.868 200.39 256.058 201.519L255.821 201.139C254.048 202.246 252.247 203.344 250.419 204.435L250.648 204.819C248.849 205.892 247.024 206.957 245.175 208.012L244.953 207.623C243.135 208.661 241.293 209.689 239.428 210.708L239.642 211.1C237.801 212.105 235.938 213.101 234.053 214.086L233.846 213.689C231.988 214.66 230.11 215.62 228.211 216.569L228.411 216.969C226.533 217.908 224.635 218.836 222.718 219.753L222.525 219.349C221.573 219.804 220.616 220.256 219.655 220.706C218.693 221.155 217.732 221.599 216.772 222.037L216.958 222.444C215.026 223.327 213.096 224.187 211.171 225.026L210.992 224.615C209.046 225.463 207.104 226.288 205.168 227.09L205.339 227.504C203.375 228.318 201.416 229.108 199.464 229.876L199.3 229.459C197.322 230.237 195.352 230.99 193.39 231.719L193.546 232.138C191.549 232.88 189.562 233.597 187.585 234.288L187.437 233.866C185.428 234.569 183.43 235.245 181.444 235.896L181.583 236.321C179.555 236.985 177.541 237.622 175.54 238.231L175.41 237.803C173.37 238.425 171.344 239.017 169.336 239.582L169.457 240.012C167.398 240.591 165.357 241.139 163.335 241.657L163.224 241.223C161.154 241.754 159.104 242.252 157.076 242.719L157.176 243.155C155.087 243.636 153.022 244.083 150.982 244.496L150.893 244.058C148.794 244.483 146.722 244.872 144.68 245.225L144.756 245.666C142.64 246.031 140.555 246.358 138.505 246.646L138.442 246.203C136.313 246.502 134.221 246.76 132.168 246.974L132.214 247.419C130.061 247.645 127.952 247.824 125.889 247.956L125.86 247.509C123.706 247.648 121.604 247.735 119.556 247.771L119.564 248.218C117.389 248.257 115.275 248.237 113.227 248.16L113.244 247.713C111.07 247.631 108.971 247.484 106.953 247.27L106.906 247.715C104.72 247.484 102.627 247.176 100.633 246.79L100.718 246.351C98.5662 245.934 96.5338 245.427 94.6296 244.83L94.4956 245.257C92.3763 244.591 90.4113 243.814 88.6123 242.923L88.8109 242.522C86.8442 241.549 85.0837 240.44 83.5428 239.198L83.262 239.546Z" stroke="black" stroke-opacity="0.46" stroke-width="0.89492" stroke-dasharray="6.26 6.26"/>
<path id="Ellipse 7" d="M62.7864 175.033C61.0527 173.6 59.5762 171.999 58.3782 170.229L58.7488 169.978C58.1504 169.094 57.6232 168.166 57.1697 167.196C56.7163 166.226 56.3433 165.226 56.0488 164.2L55.6187 164.323C55.0293 162.269 54.7483 160.109 54.7613 157.86L55.2087 157.862C55.2206 155.807 55.4822 153.671 55.9844 151.466L55.5481 151.366C56.0095 149.34 56.6703 147.261 57.5219 145.138L57.9373 145.304C58.7077 143.383 59.6366 141.424 60.7181 139.432L60.3249 139.219C61.3243 137.379 62.452 135.514 63.7029 133.629L64.0757 133.877C65.235 132.131 66.5012 130.367 67.8704 128.59L67.516 128.317C68.8115 126.635 70.1984 124.943 71.6729 123.243L72.0109 123.536C73.3964 121.939 74.8601 120.335 76.399 118.728L76.0757 118.418C77.5515 116.876 79.096 115.332 80.7065 113.787L81.0163 114.109C82.557 112.631 84.1587 111.153 85.8191 109.676L85.5217 109.342C87.1205 107.919 88.7735 106.499 90.4785 105.083L90.7644 105.427C92.4125 104.059 94.1095 102.693 95.8536 101.334L95.5786 100.981C97.2762 99.6577 99.0183 98.3399 100.803 97.0293L101.068 97.3899C102.803 96.1161 104.578 94.8489 106.392 93.5902L106.137 93.2225C107.908 91.9939 109.716 90.7733 111.56 89.5623L111.806 89.9363C113.606 88.7538 115.44 87.5804 117.307 86.4176L117.071 86.0377C118.904 84.8957 120.769 83.7638 122.665 82.6433L122.893 83.0285C124.751 81.9298 126.639 80.8421 128.555 79.7668L128.336 79.3766C130.223 78.3172 132.138 77.2697 134.078 76.2355L134.289 76.6303C136.197 75.613 138.131 74.6084 140.089 73.6178L139.887 73.2185C141.821 72.2399 143.779 71.2749 145.759 70.3246L145.952 70.728C146.934 70.2566 147.922 69.7889 148.915 69.3249C149.908 68.8609 150.9 68.4034 151.892 67.9526L151.706 67.5452C153.705 66.6361 155.702 65.7537 157.693 64.8979L157.87 65.309C159.886 64.4426 161.897 63.6036 163.902 62.7921L163.734 62.3774C165.772 61.5524 167.804 60.7557 169.827 59.9875L169.986 60.4059C172.04 59.6261 174.086 58.8757 176.121 58.1548L175.971 57.733C178.047 56.9979 180.112 56.2933 182.164 55.6194L182.304 56.0446C184.394 55.3584 186.47 54.7041 188.532 54.0818L188.403 53.6534C190.515 53.0161 192.611 52.4122 194.69 51.8419L194.808 52.2734C196.938 51.6891 199.049 51.1402 201.139 50.6267L201.032 50.1921C203.182 49.6638 205.311 49.173 207.415 48.7196L207.509 49.157C209.671 48.6913 211.807 48.2653 213.914 47.8792L213.834 47.4391C216.014 47.0396 218.164 46.6828 220.28 46.3686L220.346 46.8112C222.544 46.485 224.706 46.205 226.828 45.9714L226.779 45.5266C228.997 45.2824 231.173 45.0887 233.303 44.9457L233.333 45.3921C235.553 45.243 237.723 45.1493 239.836 45.111L239.828 44.6636C242.078 44.6229 244.266 44.6449 246.387 44.7298L246.369 45.1769C248.611 45.2666 250.776 45.4269 252.859 45.6579L252.909 45.2132C255.157 45.4625 257.311 45.7938 259.363 46.2077L259.275 46.6463C261.496 47.0941 263.595 47.6387 265.563 48.2801L265.702 47.8547C267.877 48.5636 269.896 49.3907 271.746 50.3365L271.543 50.735C273.556 51.7646 275.363 52.9342 276.947 54.2436L277.232 53.8987C278.966 55.3317 280.442 56.9328 281.64 58.7031L281.27 58.9539C281.868 59.8382 282.395 60.7654 282.849 61.7357C283.302 62.7061 283.675 63.7054 283.97 64.7317L284.4 64.6083C284.989 66.663 285.27 68.8228 285.257 71.072L284.81 71.0694C284.798 73.1245 284.536 75.2606 284.034 77.466L284.47 77.5654C284.009 79.5914 283.348 81.6708 282.496 83.7942L282.081 83.6276C281.311 85.5486 280.382 87.5082 279.3 89.4994L279.694 89.7129C278.694 91.553 277.566 93.418 276.315 95.3023L275.943 95.0548C274.783 96.801 273.517 98.5649 272.148 100.342L272.502 100.615C271.207 102.297 269.82 103.989 268.345 105.689L268.008 105.395C266.622 106.993 265.158 108.596 263.619 110.204L263.943 110.514C262.467 112.055 260.922 113.6 259.312 115.145L259.002 114.822C257.461 116.3 255.86 117.779 254.199 119.256L254.497 119.59C252.898 121.012 251.245 122.432 249.54 123.849L249.254 123.504C247.606 124.873 245.909 126.238 244.165 127.598L244.44 127.951C242.742 129.274 241 130.592 239.215 131.902L238.95 131.542C237.216 132.816 235.44 134.083 233.626 135.342L233.881 135.709C232.11 136.938 230.302 138.158 228.458 139.369L228.213 138.995C226.412 140.178 224.578 141.351 222.711 142.514L222.948 142.894C221.114 144.036 219.249 145.168 217.354 146.288L217.126 145.903C215.267 147.002 213.379 148.09 211.463 149.165L211.682 149.555C209.795 150.615 207.881 151.662 205.94 152.696L205.73 152.301C203.821 153.319 201.887 154.323 199.929 155.314L200.131 155.713C198.197 156.692 196.24 157.657 194.26 158.607L194.066 158.204C193.084 158.675 192.097 159.143 191.104 159.607C190.111 160.071 189.118 160.528 188.127 160.979L188.312 161.386C186.313 162.296 184.317 163.178 182.325 164.034L182.149 163.623C180.133 164.489 178.122 165.328 176.117 166.14L176.285 166.554C174.246 167.379 172.215 168.176 170.191 168.944L170.032 168.526C167.978 169.306 165.933 170.056 163.898 170.777L164.047 171.199C161.972 171.934 159.907 172.638 157.854 173.312L157.715 172.887C155.625 173.573 153.548 174.228 151.486 174.85L151.615 175.278C149.504 175.916 147.407 176.52 145.329 177.09L145.21 176.658C143.081 177.243 140.97 177.792 138.88 178.305L138.986 178.74C136.836 179.268 134.708 179.759 132.603 180.212L132.509 179.775C130.347 180.24 128.212 180.666 126.104 181.052L126.185 181.493C124.005 181.892 121.855 182.249 119.738 182.563L119.673 182.12C117.475 182.447 115.313 182.727 113.19 182.96L113.239 183.405C111.021 183.649 108.845 183.843 106.716 183.986L106.686 183.54C104.465 183.689 102.296 183.782 100.182 183.821L100.19 184.268C97.9402 184.309 95.7522 184.287 93.6312 184.202L93.6491 183.755C91.4075 183.665 89.2422 183.505 87.159 183.274L87.1097 183.719C84.8617 183.469 82.7076 183.138 80.655 182.724L80.7434 182.285C78.5222 181.838 76.423 181.293 74.4552 180.652L74.3165 181.077C72.1414 180.368 70.1223 179.541 68.2722 178.595L68.4759 178.197C66.4619 177.167 64.6555 175.997 63.0714 174.688L62.7864 175.033Z" stroke="black" stroke-opacity="0.46" stroke-width="0.89492" stroke-dasharray="6.26 6.26"/>
</g>
<g id="6ACA710D-DDFB-437D-BCAA-BEC40AA48EFA" filter="url(#filter0_d_403_27068)">
<rect width="622" height="398" rx="10" transform="matrix(-1 0 0 1 706 72)" fill="white"/>
</g>
</g>
<defs>
<filter id="filter0_d_403_27068" x="0" y="0" width="790" height="566" filterUnits="userSpaceOnUse" color-interpolation-filters="sRGB">
<feFlood flood-opacity="0" result="BackgroundImageFix"/>
<feColorMatrix in="SourceAlpha" type="matrix" values="0 0 0 0 0 0 0 0 0 0 0 0 0 0 0 0 0 0 127 0" result="hardAlpha"/>
<feOffset dy="12"/>
<feGaussianBlur stdDeviation="42"/>
<feColorMatrix type="matrix" values="0 0 0 0 0.113514 0 0 0 0 0.160738 0 0 0 0 0.247582 0 0 0 0.119946 0"/>
<feBlend mode="normal" in2="BackgroundImageFix" result="effect1_dropShadow_403_27068"/>
<feBlend mode="normal" in="SourceGraphic" in2="effect1_dropShadow_403_27068" result="shape"/>
</filter>
<linearGradient id="paint0_linear_403_27068" x1="416.227" y1="222.637" x2="241.605" y2="523.397" gradientUnits="userSpaceOnUse">
<stop stop-color="#5846DF"/>
<stop offset="1" stop-color="#EEF2FC" stop-opacity="0"/>
</linearGradient>
</defs>
</svg>
